<mxfile host="65bd71144e">
    <diagram id="6bnkY7PMMWQHFfjJnFAi" name="Page-1">
        <mxGraphModel dx="3697" dy="-1056" grid="1" gridSize="10" guides="1" tooltips="1" connect="1" arrows="1" fold="1" page="1" pageScale="1" pageWidth="850" pageHeight="1100" background="#ffffff" math="0" shadow="0">
            <root>
                <mxCell id="0"/>
                <mxCell id="1" parent="0"/>
                <mxCell id="2" value="Faculty of Computing Students, Faculty of Computing Lecturers, Student Represenative Council Members, Admin" style="swimlane;whiteSpace=wrap;fillColor=#FFFFFF;" parent="1" vertex="1">
                    <mxGeometry x="40" y="2370" width="590" height="990" as="geometry"/>
                </mxCell>
                <mxCell id="3" style="edgeStyle=none;html=1;exitX=0.5;exitY=1;exitDx=0;exitDy=0;entryX=0.504;entryY=-0.048;entryDx=0;entryDy=0;entryPerimeter=0;startArrow=none;" parent="2" source="11" target="5" edge="1">
                    <mxGeometry relative="1" as="geometry"/>
                </mxCell>
                <mxCell id="4" value="" style="ellipse;shape=startState;fillColor=#000000;strokeColor=#FFFFFF;" parent="2" vertex="1">
                    <mxGeometry x="100" y="40" width="30" height="30" as="geometry"/>
                </mxCell>
                <mxCell id="5" value="Opens login page" style="fillColor=#d5e8d4;strokeColor=#82b366;" parent="2" vertex="1">
                    <mxGeometry x="40" y="110" width="150" height="50" as="geometry"/>
                </mxCell>
                <mxCell id="6" style="edgeStyle=none;html=1;entryX=0.5;entryY=0;entryDx=0;entryDy=0;exitX=0.42;exitY=0.993;exitDx=0;exitDy=0;exitPerimeter=0;" parent="2" source="7" target="8" edge="1">
                    <mxGeometry relative="1" as="geometry">
                        <mxPoint x="120" y="330" as="sourcePoint"/>
                    </mxGeometry>
                </mxCell>
                <mxCell id="7" value="Enters username/email and password" style="fillColor=#d5e8d4;strokeColor=#82b366;" parent="2" vertex="1">
                    <mxGeometry x="10" y="250" width="250" height="70" as="geometry"/>
                </mxCell>
                <mxCell id="8" value="Submits login form" style="fillColor=#d5e8d4;strokeColor=#82b366;" parent="2" vertex="1">
                    <mxGeometry x="15" y="355" width="200" height="50" as="geometry"/>
                </mxCell>
                <mxCell id="9" value="" style="edgeStyle=none;html=1;exitX=0.5;exitY=1;exitDx=0;exitDy=0;entryX=0.504;entryY=-0.048;entryDx=0;entryDy=0;entryPerimeter=0;endArrow=none;" parent="2" source="4" target="11" edge="1">
                    <mxGeometry relative="1" as="geometry">
                        <mxPoint x="135" y="2440" as="sourcePoint"/>
                        <mxPoint x="135.5999999999999" y="2477.6" as="targetPoint"/>
                    </mxGeometry>
                </mxCell>
                <mxCell id="10" style="edgeStyle=none;html=1;exitX=0.5;exitY=0;exitDx=0;exitDy=0;entryX=0.5;entryY=0;entryDx=0;entryDy=0;" parent="2" source="11" target="5" edge="1">
                    <mxGeometry relative="1" as="geometry"/>
                </mxCell>
                <mxCell id="11" value="Start" style="text;strokeColor=none;align=center;fillColor=none;html=1;verticalAlign=middle;whiteSpace=wrap;rounded=0;" parent="2" vertex="1">
                    <mxGeometry x="85" y="60" width="60" height="30" as="geometry"/>
                </mxCell>
                <mxCell id="18" value="Student Engagement System" style="swimlane;whiteSpace=wrap;fillColor=#FFFFFF;" parent="1" vertex="1">
                    <mxGeometry x="630" y="2370" width="800" height="990" as="geometry"/>
                </mxCell>
                <mxCell id="27" value="Display login form" style="fillColor=#d5e8d4;strokeColor=#82b366;" parent="18" vertex="1">
                    <mxGeometry x="100.00000000000006" y="110" width="290" height="50" as="geometry"/>
                </mxCell>
                <mxCell id="110" style="edgeStyle=none;html=1;exitX=0.5;exitY=1;exitDx=0;exitDy=0;entryX=0.5;entryY=0;entryDx=0;entryDy=0;" parent="18" source="30" target="45" edge="1">
                    <mxGeometry relative="1" as="geometry"/>
                </mxCell>
                <mxCell id="30" value="Redirects user to dashboard page" style="fillColor=#d5e8d4;strokeColor=#82b366;" parent="18" vertex="1">
                    <mxGeometry x="153.47" y="735" width="183.06" height="50" as="geometry"/>
                </mxCell>
                <mxCell id="99" style="edgeStyle=none;html=1;exitX=1;exitY=0.5;exitDx=0;exitDy=0;entryX=0;entryY=0.5;entryDx=0;entryDy=0;" parent="18" source="34" target="37" edge="1">
                    <mxGeometry relative="1" as="geometry"/>
                </mxCell>
                <mxCell id="106" style="edgeStyle=none;html=1;exitX=0.5;exitY=1;exitDx=0;exitDy=0;entryX=0.5;entryY=0;entryDx=0;entryDy=0;" parent="18" source="34" target="100" edge="1">
                    <mxGeometry relative="1" as="geometry"/>
                </mxCell>
                <mxCell id="34" value="User account is verified" style="rhombus;fillColor=#ffffc0;strokeColor=#ff0000;" parent="18" vertex="1">
                    <mxGeometry x="117.5" y="550" width="255" height="40" as="geometry"/>
                </mxCell>
                <mxCell id="37" value="Display &quot;user account not verified&quot;error message" style="fillColor=#d5e8d4;strokeColor=#82b366;" parent="18" vertex="1">
                    <mxGeometry x="490" y="555" width="290" height="30" as="geometry"/>
                </mxCell>
                <mxCell id="45" value="" style="ellipse;html=1;shape=endState;fillColor=#000000;strokeColor=#ff0000;" parent="18" vertex="1">
                    <mxGeometry x="230.99999999999997" y="880" width="28.06" height="30" as="geometry"/>
                </mxCell>
                <mxCell id="46" value="End" style="text;strokeColor=none;align=center;fillColor=none;html=1;verticalAlign=middle;whiteSpace=wrap;rounded=0;" parent="18" vertex="1">
                    <mxGeometry x="213.99999999999994" y="908" width="60" height="30" as="geometry"/>
                </mxCell>
                <mxCell id="47" value="True&lt;span style=&quot;color: rgba(0, 0, 0, 0); font-family: monospace; font-size: 0px; text-align: start;&quot;&gt;%3CmxGraphModel%3E%3Croot%3E%3CmxCell%20id%3D%220%22%2F%3E%3CmxCell%20id%3D%221%22%20parent%3D%220%22%2F%3E%3CmxCell%20id%3D%222%22%20value%3D%22False%22%20style%3D%22text%3BstrokeColor%3Dnone%3Balign%3Dcenter%3BfillColor%3Dnone%3Bhtml%3D1%3BverticalAlign%3Dmiddle%3BwhiteSpace%3Dwrap%3Brounded%3D0%3B%22%20vertex%3D%221%22%20parent%3D%221%22%3E%3CmxGeometry%20x%3D%22880%22%20y%3D%222781%22%20width%3D%2260%22%20height%3D%2230%22%20as%3D%22geometry%22%2F%3E%3C%2FmxCell%3E%3C%2Froot%3E%3C%2FmxGraphModel%3E&lt;/span&gt;" style="text;strokeColor=none;align=center;fillColor=none;html=1;verticalAlign=middle;whiteSpace=wrap;rounded=0;" parent="18" vertex="1">
                    <mxGeometry x="240" y="510" width="60" height="30" as="geometry"/>
                </mxCell>
                <mxCell id="52" value="False" style="text;strokeColor=none;align=center;fillColor=none;html=1;verticalAlign=middle;whiteSpace=wrap;rounded=0;" parent="18" vertex="1">
                    <mxGeometry x="380" y="450" width="60" height="30" as="geometry"/>
                </mxCell>
                <mxCell id="107" style="edgeStyle=none;html=1;exitX=0.5;exitY=1;exitDx=0;exitDy=0;entryX=0.5;entryY=0;entryDx=0;entryDy=0;" parent="18" source="67" target="68" edge="1">
                    <mxGeometry relative="1" as="geometry"/>
                </mxCell>
                <mxCell id="67" value="Receive login request" style="fillColor=#d5e8d4;strokeColor=#82b366;" parent="18" vertex="1">
                    <mxGeometry x="140.00000000000006" y="355" width="210" height="50" as="geometry"/>
                </mxCell>
                <mxCell id="97" style="edgeStyle=none;html=1;exitX=1;exitY=0.5;exitDx=0;exitDy=0;entryX=0;entryY=0.5;entryDx=0;entryDy=0;" parent="18" source="68" target="96" edge="1">
                    <mxGeometry relative="1" as="geometry"/>
                </mxCell>
                <mxCell id="98" style="edgeStyle=none;html=1;exitX=0.5;exitY=1;exitDx=0;exitDy=0;entryX=0.5;entryY=0;entryDx=0;entryDy=0;" parent="18" source="68" target="34" edge="1">
                    <mxGeometry relative="1" as="geometry"/>
                </mxCell>
                <mxCell id="68" value="Valid credentials" style="rhombus;fillColor=#ffffc0;strokeColor=#ff0000;" parent="18" vertex="1">
                    <mxGeometry x="160.00000000000014" y="465" width="170" height="40" as="geometry"/>
                </mxCell>
                <mxCell id="96" value="Display &quot;invalid credentials&quot;error message" style="fillColor=#d5e8d4;strokeColor=#82b366;" parent="18" vertex="1">
                    <mxGeometry x="476.94" y="470" width="290" height="30" as="geometry"/>
                </mxCell>
                <mxCell id="108" style="edgeStyle=none;html=1;exitX=0.5;exitY=1;exitDx=0;exitDy=0;entryX=0.5;entryY=0;entryDx=0;entryDy=0;" parent="18" source="100" target="30" edge="1">
                    <mxGeometry relative="1" as="geometry"/>
                </mxCell>
                <mxCell id="100" value="Logs user to account" style="fillColor=#d5e8d4;strokeColor=#82b366;" parent="18" vertex="1">
                    <mxGeometry x="145.00000000000003" y="634" width="200" height="50" as="geometry"/>
                </mxCell>
                <mxCell id="104" value="False" style="text;strokeColor=none;align=center;fillColor=none;html=1;verticalAlign=middle;whiteSpace=wrap;rounded=0;" parent="18" vertex="1">
                    <mxGeometry x="380" y="540" width="60" height="30" as="geometry"/>
                </mxCell>
                <mxCell id="105" value="True&lt;span style=&quot;color: rgba(0, 0, 0, 0); font-family: monospace; font-size: 0px; text-align: start;&quot;&gt;%3CmxGraphModel%3E%3Croot%3E%3CmxCell%20id%3D%220%22%2F%3E%3CmxCell%20id%3D%221%22%20parent%3D%220%22%2F%3E%3CmxCell%20id%3D%222%22%20value%3D%22False%22%20style%3D%22text%3BstrokeColor%3Dnone%3Balign%3Dcenter%3BfillColor%3Dnone%3Bhtml%3D1%3BverticalAlign%3Dmiddle%3BwhiteSpace%3Dwrap%3Brounded%3D0%3B%22%20vertex%3D%221%22%20parent%3D%221%22%3E%3CmxGeometry%20x%3D%22880%22%20y%3D%222781%22%20width%3D%2260%22%20height%3D%2230%22%20as%3D%22geometry%22%2F%3E%3C%2FmxCell%3E%3C%2Froot%3E%3C%2FmxGraphModel%3E&lt;/span&gt;" style="text;strokeColor=none;align=center;fillColor=none;html=1;verticalAlign=middle;whiteSpace=wrap;rounded=0;" parent="18" vertex="1">
                    <mxGeometry x="240" y="600" width="60" height="30" as="geometry"/>
                </mxCell>
                <mxCell id="54" style="edgeStyle=none;html=1;exitX=1;exitY=0.5;exitDx=0;exitDy=0;entryX=0;entryY=0.5;entryDx=0;entryDy=0;" parent="1" source="5" target="27" edge="1">
                    <mxGeometry relative="1" as="geometry"/>
                </mxCell>
                <mxCell id="55" style="edgeStyle=none;html=1;exitX=0.5;exitY=1;exitDx=0;exitDy=0;entryX=0.5;entryY=0;entryDx=0;entryDy=0;" parent="1" source="27" target="7" edge="1">
                    <mxGeometry relative="1" as="geometry">
                        <Array as="points">
                            <mxPoint x="875" y="2560"/>
                            <mxPoint x="175" y="2560"/>
                        </Array>
                    </mxGeometry>
                </mxCell>
                <mxCell id="56" style="edgeStyle=none;html=1;exitX=1;exitY=0.5;exitDx=0;exitDy=0;" parent="1" source="8" edge="1">
                    <mxGeometry relative="1" as="geometry">
                        <mxPoint x="770" y="2750" as="targetPoint"/>
                    </mxGeometry>
                </mxCell>
                <mxCell id="57" style="edgeStyle=none;html=1;exitX=0.5;exitY=0;exitDx=0;exitDy=0;entryX=1;entryY=0.5;entryDx=0;entryDy=0;" parent="1" source="96" target="7" edge="1">
                    <mxGeometry relative="1" as="geometry">
                        <Array as="points">
                            <mxPoint x="1252" y="2660"/>
                        </Array>
                        <mxPoint x="1440" y="2733" as="sourcePoint"/>
                    </mxGeometry>
                </mxCell>
                <mxCell id="111" value="act Login" style="shape=umlFrame;whiteSpace=wrap;html=1;rounded=0;shadow=0;comic=0;labelBackgroundColor=none;strokeWidth=1;fontFamily=Verdana;fontSize=10;align=center;" vertex="1" parent="1">
                    <mxGeometry x="-10" y="2330" width="1480" height="1070" as="geometry"/>
                </mxCell>
            </root>
        </mxGraphModel>
    </diagram>
</mxfile>